#N canvas 549 550 525 505 10;
#X obj 44 26 inlet;
#X obj 44 53 route bang table resize;
#X obj 44 85 f;
#X obj 44 110 t f f f;
#X obj 132 93 + 1;
#X obj 132 115 % 25;
#X obj 44 460 outlet;
#X obj 333 131 loadbang;
#X obj 333 152 \$3;
#X obj 333 173 route 0;
#X msg 333 195 100;
#X obj 333 276 * 25;
#X obj 168 260 * 100;
#X obj 333 220 f;
#X msg 168 311 memset \$1 \$2;
#X obj 168 288 pack f s;
#X obj 213 173 symbol \$2;
#X obj 213 138 loadbang;
#X msg 333 329 allocate \$2 \$1;
#X obj 333 302 pack f \$1;
#X obj 44 333 pack f \$1 f;
#X msg 44 437 synchro-\$2 \$1 \$3;
#X floatatom 219 406 5 0 0 0 - - -, f 5;
#X obj 168 382 shmem 0 0;
#X connect 0 0 1 0;
#X connect 1 0 2 0;
#X connect 1 1 16 0;
#X connect 1 2 13 0;
#X connect 2 0 3 0;
#X connect 3 0 20 0;
#X connect 3 1 12 0;
#X connect 3 2 4 0;
#X connect 4 0 5 0;
#X connect 5 0 2 1;
#X connect 7 0 8 0;
#X connect 8 0 9 0;
#X connect 9 0 10 0;
#X connect 9 1 13 0;
#X connect 10 0 13 0;
#X connect 11 0 19 0;
#X connect 12 0 15 0;
#X connect 13 0 11 0;
#X connect 13 0 12 1;
#X connect 13 0 20 2;
#X connect 14 0 23 0;
#X connect 15 0 14 0;
#X connect 16 0 15 1;
#X connect 17 0 16 0;
#X connect 18 0 23 0;
#X connect 19 0 18 0;
#X connect 20 0 21 0;
#X connect 21 0 6 0;
#X connect 23 1 22 0;
