#N canvas 805 522 362 339 10;
#X obj 22 23 inlet;
#X obj 79 142 pack f \$1;
#X msg 79 166 allocate \$2 \$1;
#X obj 22 71 unpack f f;
#X obj 22 46 route synchro-\$1 table;
#X msg 213 228 resize \$1;
#X obj 228 169 symbol \$2;
#X obj 228 142 loadbang;
#X obj 213 249 s;
#X msg 22 229 memdump \$1 \$2;
#X obj 22 207 pack f s;
#X obj 22 134 *;
#X obj 79 121 * 25;
#X floatatom 130 285 5 0 0 0 - - -, f 5;
#X obj 79 264 shmem 0 0;
#X obj 79 97 change -1;
#X connect 0 0 4 0;
#X connect 1 0 2 0;
#X connect 2 0 14 0;
#X connect 3 0 11 0;
#X connect 3 1 15 0;
#X connect 4 0 3 0;
#X connect 4 1 6 0;
#X connect 5 0 8 0;
#X connect 6 0 8 1;
#X connect 6 0 10 1;
#X connect 7 0 6 0;
#X connect 9 0 14 0;
#X connect 10 0 9 0;
#X connect 11 0 10 0;
#X connect 12 0 1 0;
#X connect 14 1 13 0;
#X connect 15 0 5 0;
#X connect 15 0 11 1;
#X connect 15 0 12 0;
