#N canvas 13 111 200 181 10;
#N canvas 23 83 420 300 META 1;
#X text 10 25 AUTHOR Cyrille Henry and Nicolas Montgermont;
#X text 13 41 NAME share_mem;
#X text 10 10 VERSION 1.1;
#X restore 10 10 pd META;
